  0
SECTION
  2
HEADER
  9
$ACADVER
  1
AC1009
  9
$DWGCODEPAGE
  3
ANSI_1252
  9
$INSBASE
 10
0.0
 20
0.0
 30
0.0
  9
$EXTMIN
 10
1e+20
 20
1e+20
 30
1e+20
  9
$EXTMAX
 10
-1e+20
 20
-1e+20
 30
-1e+20
  9
$LIMMIN
 10
0.0
 20
0.0
  9
$LIMMAX
 10
420.0
 20
297.0
  9
$ORTHOMODE
 70
0
  9
$REGENMODE
 70
1
  9
$FILLMODE
 70
1
  9
$DRAGMODE
 70
2
  9
$QTEXTMODE
 70
0
  9
$MIRRTEXT
 70
1
  9
$OSMODE
 70
20583
  9
$LTSCALE
 40
1.0
  9
$ATTMODE
 70
1
  9
$TEXTSIZE
 40
2.5
  9
$TRACEWID
 40
1.0
  9
$TEXTSTYLE
  7
Standard
  9
$CLAYER
  8
0
  9
$CELTYPE
  6
ByLayer
  9
$CECOLOR
 62
256
  9
$DIMSCALE
 40
1.0
  9
$DIMASZ
 40
2.5
  9
$DIMEXO
 40
0.625
  9
$DIMDLI
 40
3.75
  9
$DIMRND
 40
0.0
  9
$DIMDLE
 40
0.0
  9
$DIMEXE
 40
1.25
  9
$DIMTP
 40
0.0
  9
$DIMTM
 40
0.0
  9
$DIMTXT
 40
2.5
  9
$DIMCEN
 40
2.5
  9
$DIMTSZ
 40
0.0
  9
$DIMTOL
 70
0
  9
$DIMLIM
 70
0
  9
$DIMTIH
 70
0
  9
$DIMTOH
 70
0
  9
$DIMSE1
 70
0
  9
$DIMSE2
 70
0
  9
$DIMTAD
 70
1
  9
$DIMZIN
 70
8
  9
$DIMBLK
  1

  9
$DIMASO
 70
1
  9
$DIMSHO
 70
1
  9
$DIMPOST
  1

  9
$DIMAPOST
  1

  9
$DIMALT
 70
0
  9
$DIMALTD
 70
3
  9
$DIMALTF
 40
0.03937007874
  9
$DIMLFAC
 40
1.0
  9
$DIMTOFL
 70
1
  9
$DIMTVP
 40
0.0
  9
$DIMTIX
 70
0
  9
$DIMSOXD
 70
0
  9
$DIMSAH
 70
0
  9
$DIMBLK1
  1

  9
$DIMBLK2
  1

  9
$DIMSTYLE
  2
ISO-25
  9
$DIMCLRD
 70
0
  9
$DIMCLRE
 70
0
  9
$DIMCLRT
 70
0
  9
$DIMTFAC
 40
1.0
  9
$DIMGAP
 40
0.625
  9
$COORDS
 70
1
  9
$ATTDIA
 70
0
  9
$ATTREQ
 70
1
  9
$HANDLING
 70
1
  9
$LUNITS
 70
2
  9
$LUPREC
 70
4
  9
$SKETCHINC
 40
1.0
  9
$FILLETRAD
 40
10.0
  9
$AUNITS
 70
0
  9
$AUPREC
 70
2
  9
$MENU
  1
.
  9
$ELEVATION
 40
0.0
  9
$PELEVATION
 40
0.0
  9
$THICKNESS
 40
0.0
  9
$LIMCHECK
 70
0
  9
$CHAMFERA
 40
0.0
  9
$CHAMFERB
 40
0.0
  9
$SKPOLY
 70
0
  9
$TDCREATE
 40
2461322.7070949073
  9
$TDUPDATE
 40
2461322.7070949073
  9
$TDINDWG
 40
0.0
  9
$TDUSRTIMER
 40
0.0
  9
$USRTIMER
 70
1
  9
$ANGBASE
 50
0.0
  9
$ANGDIR
 70
0
  9
$PDMODE
 70
0
  9
$PDSIZE
 40
0.0
  9
$PLINEWID
 40
0.0
  9
$SPLFRAME
 70
0
  9
$SPLINETYPE
 70
6
  9
$SPLINESEGS
 70
8
  9
$HANDSEED
  5
82
  9
$SURFTAB1
 70
6
  9
$SURFTAB2
 70
6
  9
$SURFTYPE
 70
6
  9
$SURFU
 70
6
  9
$SURFV
 70
6
  9
$UCSNAME
  2

  9
$UCSORG
 10
0.0
 20
0.0
 30
0.0
  9
$UCSXDIR
 10
1.0
 20
0.0
 30
0.0
  9
$UCSYDIR
 10
0.0
 20
1.0
 30
0.0
  9
$PUCSNAME
  2

  9
$PUCSORG
 10
0.0
 20
0.0
 30
0.0
  9
$PUCSXDIR
 10
1.0
 20
0.0
 30
0.0
  9
$PUCSYDIR
 10
0.0
 20
1.0
 30
0.0
  9
$USERI1
 70
0
  9
$USERI2
 70
0
  9
$USERI3
 70
0
  9
$USERI4
 70
0
  9
$USERI5
 70
0
  9
$USERR1
 40
0.0
  9
$USERR2
 40
0.0
  9
$USERR3
 40
0.0
  9
$USERR4
 40
0.0
  9
$USERR5
 40
0.0
  9
$WORLDVIEW
 70
1
  9
$SHADEDGE
 70
3
  9
$SHADEDIF
 70
70
  9
$TILEMODE
 70
1
  9
$MAXACTVP
 70
64
  9
$PLIMCHECK
 70
0
  9
$PEXTMIN
 10
1e+20
 20
1e+20
 30
1e+20
  9
$PEXTMAX
 10
-1e+20
 20
-1e+20
 30
-1e+20
  9
$PLIMMIN
 10
0.0
 20
0.0
  9
$PLIMMAX
 10
420.0
 20
297.0
  9
$UNITMODE
 70
0
  9
$VISRETAIN
 70
1
  9
$PLINEGEN
 70
0
  9
$PSLTSCALE
 70
1
  0
ENDSEC
  0
SECTION
  2
TABLES
  0
TABLE
  2
VPORT
 70
1
  0
VPORT
  5
23
  2
*Active
 70
0
 10
0.0
 20
0.0
 11
1.0
 21
1.0
 12
0.0
 22
0.0
 13
0.0
 23
0.0
 14
0.5
 24
0.5
 15
0.5
 25
0.5
 16
0.0
 26
0.0
 36
1.0
 17
0.0
 27
0.0
 37
0.0
 40
1000.0
 41
1.34
 42
50.0
 43
0.0
 44
0.0
 50
0.0
 51
0.0
 71
0
 72
1000
 73
1
 74
3
 75
0
 76
0
 77
0
 78
0
  0
ENDTAB
  0
TABLE
  2
LTYPE
 70
3
  0
LTYPE
  5
24
  2
ByBlock
 70
0
  3

 72
65
 73
0
 40
0.0
  0
LTYPE
  5
25
  2
ByLayer
 70
0
  3

 72
65
 73
0
 40
0.0
  0
LTYPE
  5
26
  2
Continuous
 70
0
  3

 72
65
 73
0
 40
0.0
  0
ENDTAB
  0
TABLE
  2
LAYER
 70
6
  0
LAYER
  5
27
  2
0
 70
0
 62
7
  6
Continuous
  0
LAYER
  5
28
  2
Defpoints
 70
0
 62
7
  6
Continuous
  0
LAYER
  5
2D
  2
CUT
 70
0
 62
7
  6
Continuous
  0
LAYER
  5
2E
  2
SHEET
 70
0
 62
8
  6
Continuous
  0
LAYER
  5
2F
  2
FOLD
 70
0
 62
5
  6
Continuous
  0
LAYER
  5
30
  2
LABEL
 70
0
 62
3
  6
Continuous
  0
ENDTAB
  0
TABLE
  2
STYLE
 70
1
  0
STYLE
  5
29
  2
Standard
 70
0
 40
0.0
 41
1.0
 50
0.0
 71
0
 42
2.5
  3
txt
  4

  0
ENDTAB
  0
TABLE
  2
VIEW
 70
0
  0
ENDTAB
  0
TABLE
  2
UCS
 70
0
  0
ENDTAB
  0
TABLE
  2
APPID
 70
3
  0
APPID
  5
2A
  2
ACAD
 70
0
  0
APPID
  5
80
  2
HATCHBACKGROUNDCOLOR
 70
0
  0
APPID
  5
81
  2
EZDXF
 70
0
  0
ENDTAB
  0
TABLE
  2
DIMSTYLE
 70
1
  0
DIMSTYLE
105
2B
  2
Standard
 70
0
  3

  4

  5

  6

  7

 40
1.0
 41
2.5
 42
0.625
 43
3.75
 44
1.25
 45
0.0
 46
0.0
 47
0.0
 48
0.0
140
2.5
141
2.5
142
0.0
143
0.03937007874
144
1.0
145
0.0
146
1.0
147
0.625
 71
0
 72
0
 73
0
 74
0
 75
0
 76
0
 77
1
 78
8
170
0
171
3
172
1
173
0
174
0
175
0
176
0
177
0
178
0
  0
ENDTAB
  0
ENDSEC
  0
SECTION
  2
BLOCKS
  0
BLOCK
  5
18
  8
0
  2
$Model_Space
 70
0
 10
0.0
 20
0.0
 30
0.0
  3
$Model_Space
  1

1001
EZDXF
1000
CREATED_BY_EZDXF
1000
1.4.4 @ 2026-10-08T16:58:13.455088+00:00
1000
WRITTEN_BY_EZDXF
1000
1.4.4 @ 2026-10-08T16:58:13.461227+00:00
  0
ENDBLK
  5
19
  8
0
  0
BLOCK
  5
1C
  8
0
  2
$Paper_Space
 70
0
 10
0.0
 20
0.0
 30
0.0
  3
$Paper_Space
  1

  0
ENDBLK
  5
1D
  8
0
  0
ENDSEC
  0
SECTION
  2
ENTITIES
  0
POLYLINE
  5
31
  8
CUT
 66
1
 10
0.0
 20
0.0
 30
0.0
 70
1
  0
VERTEX
  5
33
  8
CUT
 10
0.23622047244094488
 20
0.23622047244094488
 30
0.0
 70
0
  0
VERTEX
  5
34
  8
CUT
 10
10.621489764126677
 20
0.23622047244094488
 30
0.0
 70
0
  0
VERTEX
  5
35
  8
CUT
 10
7.129642519858615
 20
4.894779675658867
 30
0.0
 70
0
  0
VERTEX
  5
36
  8
CUT
 10
3.728067716709008
 20
4.894779675658867
 30
0.0
 70
0
  0
SEQEND
  5
32
  8
CUT
  0
POLYLINE
  5
37
  8
CUT
 66
1
 10
0.0
 20
0.0
 30
0.0
 70
1
  0
VERTEX
  5
39
  8
CUT
 10
17.76092227742368
 20
4.894779675658867
 30
0.0
 70
0
  0
VERTEX
  5
3A
  8
CUT
 10
7.375652985737948
 20
4.894779675658867
 30
0.0
 70
0
  0
VERTEX
  5
3B
  8
CUT
 10
10.86750023000601
 20
0.23622047244094488
 30
0.0
 70
0
  0
VERTEX
  5
3C
  8
CUT
 10
14.269075033155618
 20
0.23622047244094488
 30
0.0
 70
0
  0
SEQEND
  5
38
  8
CUT
  0
POLYLINE
  5
3D
  8
CUT
 66
1
 10
0.0
 20
0.0
 30
0.0
 70
1
  0
VERTEX
  5
3F
  8
CUT
 10
22.721552198683522
 20
0.23622047244094488
 30
0.0
 70
0
  0
VERTEX
  5
40
  8
CUT
 10
18.19399314356541
 20
0.23622047244094488
 30
0.0
 70
0
  0
VERTEX
  5
41
  8
CUT
 10
18.19399314356541
 20
0.47244094488188976
 30
0.0
 70
0
  0
VERTEX
  5
42
  8
CUT
 10
17.957772671124467
 20
0.47244094488188976
 30
0.0
 70
0
  0
VERTEX
  5
43
  8
CUT
 10
17.957772671124467
 20
3.915984251968504
 30
0.0
 70
0
  0
VERTEX
  5
44
  8
CUT
 10
18.19399314356541
 20
3.915984251968504
 30
0.0
 70
0
  0
VERTEX
  5
45
  8
CUT
 10
18.19399314356541
 20
4.152204724409449
 30
0.0
 70
0
  0
VERTEX
  5
46
  8
CUT
 10
22.721552198683522
 20
4.152204724409449
 30
0.0
 70
0
  0
SEQEND
  5
3E
  8
CUT
  0
CIRCLE
  5
47
  8
CUT
 10
21.001079757738637
 20
2.194212598425197
 30
0.0
 40
0.08858267716535433
  0
POLYLINE
  5
48
  8
CUT
 66
1
 10
0.0
 20
0.0
 30
0.0
 70
1
  0
VERTEX
  5
4A
  8
CUT
 10
4.972367495509588
 20
10.109978803922614
 30
0.0
 70
0
  0
VERTEX
  5
4B
  8
CUT
 10
5.295736693289679
 20
10.026118293981956
 30
0.0
 70
0
  0
VERTEX
  5
4C
  8
CUT
 10
8.007727117003428
 20
5.414999267139746
 30
0.0
 70
0
  0
VERTEX
  5
4D
  8
CUT
 10
7.923866607062771
 20
5.091630069359655
 30
0.0
 70
0
  0
VERTEX
  5
4E
  8
CUT
 10
0.32008098238160276
 20
5.091630069359655
 30
0.0
 70
0
  0
VERTEX
  5
4F
  8
CUT
 10
0.23622047244094488
 20
5.414999267139746
 30
0.0
 70
0
  0
VERTEX
  5
50
  8
CUT
 10
2.948210896154695
 20
10.026118293981956
 30
0.0
 70
0
  0
VERTEX
  5
51
  8
CUT
 10
3.2715800939347854
 20
10.109978803922614
 30
0.0
 70
0
  0
SEQEND
  5
49
  8
CUT
  0
POLYLINE
  5
52
  8
CUT
 66
1
 10
0.0
 20
0.0
 30
0.0
 70
1
  0
VERTEX
  5
54
  8
CUT
 10
8.700334105396895
 20
5.091630069359655
 30
0.0
 70
0
  0
VERTEX
  5
55
  8
CUT
 10
8.376964907616804
 20
5.175490579300314
 30
0.0
 70
0
  0
VERTEX
  5
56
  8
CUT
 10
5.664974483903054
 20
9.786609606142523
 30
0.0
 70
0
  0
VERTEX
  5
57
  8
CUT
 10
5.748834993843711
 20
10.109978803922614
 30
0.0
 70
0
  0
VERTEX
  5
58
  8
CUT
 10
13.35262061852488
 20
10.109978803922614
 30
0.0
 70
0
  0
VERTEX
  5
59
  8
CUT
 10
13.436481128465537
 20
9.786609606142523
 30
0.0
 70
0
  0
VERTEX
  5
5A
  8
CUT
 10
10.724490704751787
 20
5.175490579300314
 30
0.0
 70
0
  0
VERTEX
  5
5B
  8
CUT
 10
10.401121506971696
 20
5.091630069359655
 30
0.0
 70
0
  0
SEQEND
  5
53
  8
CUT
  0
POLYLINE
  5
5C
  8
CUT
 66
1
 10
0.0
 20
0.0
 30
0.0
 70
1
  0
VERTEX
  5
5E
  8
CUT
 10
13.633331522166326
 20
5.091630069359655
 30
0.0
 70
0
  0
VERTEX
  5
5F
  8
CUT
 10
13.633331522166326
 20
9.619189124477765
 30
0.0
 70
0
  0
VERTEX
  5
60
  8
CUT
 10
13.86955199460727
 20
9.619189124477765
 30
0.0
 70
0
  0
VERTEX
  5
61
  8
CUT
 10
13.86955199460727
 20
9.85540959691871
 30
0.0
 70
0
  0
VERTEX
  5
62
  8
CUT
 10
17.313095301693885
 20
9.85540959691871
 30
0.0
 70
0
  0
VERTEX
  5
63
  8
CUT
 10
17.313095301693885
 20
9.619189124477765
 30
0.0
 70
0
  0
VERTEX
  5
64
  8
CUT
 10
17.54931577413483
 20
9.619189124477765
 30
0.0
 70
0
  0
VERTEX
  5
65
  8
CUT
 10
17.54931577413483
 20
5.091630069359655
 30
0.0
 70
0
  0
SEQEND
  5
5D
  8
CUT
  0
POLYLINE
  5
66
  8
CUT
 66
1
 10
0.0
 20
0.0
 30
0.0
 70
1
  0
VERTEX
  5
68
  8
CUT
 10
19.44695356941042
 20
5.091630069359655
 30
0.0
 70
0
  0
VERTEX
  5
69
  8
CUT
 10
17.746166167835618
 20
5.091630069359655
 30
0.0
 70
0
  0
VERTEX
  5
6A
  8
CUT
 10
17.746166167835618
 20
9.85540959691871
 30
0.0
 70
0
  0
VERTEX
  5
6B
  8
CUT
 10
19.44695356941042
 20
9.85540959691871
 30
0.0
 70
0
  0
SEQEND
  5
67
  8
CUT
  0
POLYLINE
  5
6C
  8
CUT
 66
1
 10
0.0
 20
0.0
 30
0.0
 70
1
  0
VERTEX
  5
6E
  8
CUT
 10
21.34459136468601
 20
5.091630069359655
 30
0.0
 70
0
  0
VERTEX
  5
6F
  8
CUT
 10
19.643803963111207
 20
5.091630069359655
 30
0.0
 70
0
  0
VERTEX
  5
70
  8
CUT
 10
19.643803963111207
 20
9.85540959691871
 30
0.0
 70
0
  0
VERTEX
  5
71
  8
CUT
 10
21.34459136468601
 20
9.85540959691871
 30
0.0
 70
0
  0
SEQEND
  5
6D
  8
CUT
  0
POLYLINE
  5
72
  8
CUT
 66
1
 10
0.0
 20
0.0
 30
0.0
 70
1
  0
VERTEX
  5
74
  8
CUT
 10
23.756638608780495
 20
5.3278505418006
 30
0.0
 70
0
  0
VERTEX
  5
75
  8
CUT
 10
23.52041813633955
 20
5.3278505418006
 30
0.0
 70
0
  0
VERTEX
  5
76
  8
CUT
 10
23.52041813633955
 20
5.091630069359655
 30
0.0
 70
0
  0
VERTEX
  5
77
  8
CUT
 10
21.777662230827744
 20
5.091630069359655
 30
0.0
 70
0
  0
VERTEX
  5
78
  8
CUT
 10
21.777662230827744
 20
5.3278505418006
 30
0.0
 70
0
  0
VERTEX
  5
79
  8
CUT
 10
21.541441758386796
 20
5.3278505418006
 30
0.0
 70
0
  0
VERTEX
  5
7A
  8
CUT
 10
21.541441758386796
 20
8.813362352824223
 30
0.0
 70
0
  0
VERTEX
  5
7B
  8
CUT
 10
21.777662230827744
 20
8.813362352824223
 30
0.0
 70
0
  0
VERTEX
  5
7C
  8
CUT
 10
21.777662230827744
 20
9.049582825265167
 30
0.0
 70
0
  0
VERTEX
  5
7D
  8
CUT
 10
23.52041813633955
 20
9.049582825265167
 30
0.0
 70
0
  0
VERTEX
  5
7E
  8
CUT
 10
23.52041813633955
 20
8.813362352824223
 30
0.0
 70
0
  0
VERTEX
  5
7F
  8
CUT
 10
23.756638608780495
 20
8.813362352824223
 30
0.0
 70
0
  0
SEQEND
  5
73
  8
CUT
  0
ENDSEC
  0
EOF
